<svg width="32" height="32" viewBox="0 0 32 32" fill="none" xmlns="http://www.w3.org/2000/svg">
<rect x="10" width="2" height="2" fill="black" style="fill:black;fill-opacity:1;"/>
<rect x="8" y="2" width="2" height="2" fill="black" style="fill:black;fill-opacity:1;"/>
<rect x="6" y="4" width="2" height="2" fill="black" style="fill:black;fill-opacity:1;"/>
<rect x="4" y="6" width="2" height="2" fill="black" style="fill:black;fill-opacity:1;"/>
<rect x="2" y="8" width="2" height="2" fill="black" style="fill:black;fill-opacity:1;"/>
<rect x="2" y="10" width="2" height="2" fill="black" style="fill:black;fill-opacity:1;"/>
<rect x="2" y="12" width="2" height="2" fill="black" style="fill:black;fill-opacity:1;"/>
<rect x="2" y="14" width="2" height="2" fill="black" style="fill:black;fill-opacity:1;"/>
<rect y="16" width="2" height="2" fill="black" style="fill:black;fill-opacity:1;"/>
<rect y="18" width="2" height="2" fill="black" style="fill:black;fill-opacity:1;"/>
<rect x="2" y="18" width="2" height="2" fill="black" style="fill:black;fill-opacity:1;"/>
<rect x="2" y="22" width="2" height="2" fill="black" style="fill:black;fill-opacity:1;"/>
<rect x="4" y="22" width="2" height="2" fill="black" style="fill:black;fill-opacity:1;"/>
<rect x="6" y="22" width="2" height="2" fill="black" style="fill:black;fill-opacity:1;"/>
<rect x="8" y="22" width="2" height="2" fill="black" style="fill:black;fill-opacity:1;"/>
<rect x="4" y="24" width="2" height="2" fill="black" style="fill:black;fill-opacity:1;"/>
<rect x="2" y="26" width="2" height="2" fill="black" style="fill:black;fill-opacity:1;"/>
<rect x="4" y="28" width="2" height="2" fill="black" style="fill:black;fill-opacity:1;"/>
<rect x="6" y="24" width="2" height="2" fill="black" style="fill:black;fill-opacity:1;"/>
<rect x="8" y="24" width="2" height="2" fill="black" style="fill:black;fill-opacity:1;"/>
<rect x="10" y="28" width="2" height="2" fill="black" style="fill:black;fill-opacity:1;"/>
<rect x="8" y="30" width="2" height="2" fill="black" style="fill:black;fill-opacity:1;"/>
<rect x="6" y="30" width="2" height="2" fill="black" style="fill:black;fill-opacity:1;"/>
<rect x="14" y="28" width="2" height="2" fill="black" style="fill:black;fill-opacity:1;"/>
<rect x="14" y="30" width="2" height="2" fill="black" style="fill:black;fill-opacity:1;"/>
<rect x="12" y="30" width="2" height="2" fill="black" style="fill:black;fill-opacity:1;"/>
<rect x="10" y="30" width="2" height="2" fill="black" style="fill:black;fill-opacity:1;"/>
<rect x="16" y="28" width="2" height="2" fill="black" style="fill:black;fill-opacity:1;"/>
<rect x="16" y="30" width="2" height="2" fill="black" style="fill:black;fill-opacity:1;"/>
<rect x="20" y="30" width="2" height="2" fill="black" style="fill:black;fill-opacity:1;"/>
<rect x="20" y="28" width="2" height="2" fill="black" style="fill:black;fill-opacity:1;"/>
<rect x="12" y="14" width="2" height="2" fill="black" style="fill:black;fill-opacity:1;"/>
<rect x="22" y="14" width="2" height="2" fill="black" style="fill:black;fill-opacity:1;"/>
<rect x="24" y="2" width="2" height="2" fill="black" style="fill:black;fill-opacity:1;"/>
<rect x="22" width="2" height="2" fill="black" style="fill:black;fill-opacity:1;"/>
<rect x="20" y="2" width="2" height="2" fill="black" style="fill:black;fill-opacity:1;"/>
<rect x="18" y="4" width="2" height="2" fill="black" style="fill:black;fill-opacity:1;"/>
<rect x="16" y="6" width="2" height="2" fill="black" style="fill:black;fill-opacity:1;"/>
<rect x="14" y="6" width="2" height="2" fill="black" style="fill:black;fill-opacity:1;"/>
<rect x="12" y="6" width="2" height="2" fill="black" style="fill:black;fill-opacity:1;"/>
<rect x="12" y="4" width="2" height="2" fill="black" style="fill:black;fill-opacity:1;"/>
<rect x="12" y="2" width="2" height="2" fill="black" style="fill:black;fill-opacity:1;"/>
<rect x="24" y="4" width="2" height="2" fill="black" style="fill:black;fill-opacity:1;"/>
<rect x="24" y="6" width="2" height="2" fill="black" style="fill:black;fill-opacity:1;"/>
<rect x="26" y="8" width="2" height="2" fill="black" style="fill:black;fill-opacity:1;"/>
<rect x="28" y="10" width="2" height="2" fill="black" style="fill:black;fill-opacity:1;"/>
<rect x="28" y="12" width="2" height="2" fill="black" style="fill:black;fill-opacity:1;"/>
<rect x="28" y="14" width="2" height="2" fill="black" style="fill:black;fill-opacity:1;"/>
<rect x="30" y="16" width="2" height="2" fill="black" style="fill:black;fill-opacity:1;"/>
<rect x="30" y="18" width="2" height="2" fill="black" style="fill:black;fill-opacity:1;"/>
<rect x="28" y="18" width="2" height="2" fill="black" style="fill:black;fill-opacity:1;"/>
<rect x="24" y="22" width="2" height="2" fill="black" style="fill:black;fill-opacity:1;"/>
<rect x="26" y="22" width="2" height="2" fill="black" style="fill:black;fill-opacity:1;"/>
<rect x="28" y="22" width="2" height="2" fill="black" style="fill:black;fill-opacity:1;"/>
<rect x="22" y="22" width="2" height="2" fill="black" style="fill:black;fill-opacity:1;"/>
<rect x="22" y="24" width="2" height="2" fill="black" style="fill:black;fill-opacity:1;"/>
<rect x="22" y="26" width="2" height="2" fill="black" style="fill:black;fill-opacity:1;"/>
<rect x="30" y="20" width="2" height="2" fill="black" style="fill:black;fill-opacity:1;"/>
<rect x="16" y="18" width="2" height="2" fill="black" style="fill:black;fill-opacity:1;"/>
<rect x="18" y="18" width="2" height="2" fill="black" style="fill:black;fill-opacity:1;"/>
<rect x="12" y="16" width="2" height="2" fill="black" style="fill:black;fill-opacity:1;"/>
<rect x="22" y="16" width="2" height="2" fill="black" style="fill:black;fill-opacity:1;"/>
<rect x="8" y="26" width="2" height="2" fill="black" style="fill:black;fill-opacity:1;"/>
<rect x="6" y="26" width="2" height="2" fill="black" style="fill:black;fill-opacity:1;"/>
<rect y="20" width="2" height="2" fill="black" style="fill:black;fill-opacity:1;"/>
</svg>
